<?xml version="1.0" encoding="utf-8"?>
<!-- Generator: Adobe Illustrator 21.1.0, SVG Export Plug-In . SVG Version: 6.00 Build 0)  -->
<svg version="1.1" id="Warstwa_1" xmlns="http://www.w3.org/2000/svg" xmlns:xlink="http://www.w3.org/1999/xlink" x="0px" y="0px"
	 viewBox="0 0 32 32" style="enable-background:new 0 0 32 32;" xml:space="preserve">
<style type="text/css">
	.st0{fill:transparent;}
</style>
<title>Zasób 86</title>
<g id="Warstwa_2">
	<g id="Warstwa_6">
		<rect class="st0" width="32" height="32"/>
		<g id="Warstwa_1-2">
			<path d="M24.1,25.6H8.3v-1h15.8V25.6z M18.8,11.9L18.8,11.9c-0.3,0-0.6,0.3-0.6,0.6l0,0l0,0c0,0.3,0.3,0.6,0.6,0.6l0,0
				c0.3,0,0.6-0.3,0.6-0.6l0,0l0,0l0,0C19.4,12.2,19.1,11.9,18.8,11.9z M9.7,15.4v-1h0.5c0.3,0,0.6-0.1,0.8-0.2
				c0.2-0.2,0.3-0.5,0.3-0.7c0-0.3-0.1-0.5-0.3-0.7c-0.2-0.2-0.4-0.3-0.7-0.2c-0.6,0-1.1,0.4-1.2,1l-1-0.2C8.4,12.8,8.6,12.3,9,12
				c0.4-0.3,0.9-0.5,1.4-0.5c0.5,0,1,0.2,1.4,0.5c0.4,0.3,0.6,0.8,0.6,1.3c0,0.4-0.1,0.7-0.3,1c-0.2,0.3-0.5,0.4-0.8,0.5
				c0.4,0.1,0.7,0.3,0.9,0.5c0.2,0.3,0.4,0.7,0.3,1.1c0,0.5-0.2,1.1-0.6,1.4c-0.4,0.4-1,0.6-1.6,0.6c-0.6,0-1.1-0.2-1.5-0.5
				c-0.4-0.3-0.7-0.8-0.8-1.3l1-0.3c0.1,0.6,0.6,1.1,1.3,1.1c0.3,0,0.6-0.1,0.8-0.3c0.2-0.2,0.3-0.5,0.3-0.7c0-0.3-0.1-0.5-0.3-0.8
				c-0.2-0.2-0.5-0.3-0.8-0.3L9.7,15.4L9.7,15.4z M15.5,18.5c-0.7,0-1.3-0.4-1.6-1c-0.4-0.7-0.6-1.6-0.6-2.4c0-0.9,0.2-1.8,0.6-2.6
				c0.3-0.6,0.9-1,1.6-1c0.5,0,0.9,0.2,1.2,0.5c0.4,0.3,0.6,0.8,0.7,1.3c0.2,0.5,0.2,1,0.2,1.5c0,0.7-0.1,1.3-0.2,1.9
				c-0.1,0.5-0.4,0.9-0.7,1.2C16.4,18.3,16,18.5,15.5,18.5L15.5,18.5z M15.5,17.5c0.3,0,0.5-0.1,0.7-0.3c0.2-0.3,0.3-0.6,0.4-0.9
				c0.1-0.5,0.1-1,0.1-1.6c0-0.5-0.1-1.1-0.2-1.6c-0.1-0.4-0.5-0.7-0.9-0.7c-0.8,0-1.2,0.8-1.2,2.5c0,0.6,0.1,1.2,0.2,1.8
				C14.7,17.2,15.1,17.5,15.5,17.5L15.5,17.5z M23.3,16l1,0.1c0,0.6-0.3,1.2-0.7,1.7c-0.4,0.4-0.9,0.7-1.5,0.6
				c-0.5,0-0.9-0.2-1.3-0.5c-0.3-0.3-0.6-0.8-0.7-1.2c-0.2-0.6-0.3-1.1-0.3-1.7c0-0.9,0.2-1.7,0.6-2.5c0.4-0.6,1-1,1.7-1
				c0.5,0,1.1,0.2,1.4,0.6c0.4,0.5,0.7,1.1,0.7,1.8l-1,0.1c-0.2-1-0.6-1.5-1.2-1.5c-0.4,0-0.8,0.3-0.9,0.6c-0.2,0.6-0.4,1.2-0.3,1.8
				c0,0.6,0.1,1.3,0.3,1.8c0.2,0.4,0.5,0.6,0.9,0.6c0.3,0,0.6-0.2,0.7-0.4C23.1,16.7,23.3,16.4,23.3,16L23.3,16z M18.8,11.4
				L18.8,11.4c0.6,0,1.1,0.5,1.1,1.1l0,0l0,0l0,0c0,0.6-0.5,1.1-1.1,1.1l0,0c-0.6,0-1.1-0.5-1.1-1.1l0,0l0,0l0,0
				C17.7,11.9,18.2,11.4,18.8,11.4L18.8,11.4L18.8,11.4z M5.1,8c0.3-0.2,0.7-0.4,1-0.6c0.7-0.5,1.4-1,2.1-1s1.5,0.5,2.2,1
				c0.6,0.4,1.2,0.9,1.8,0.9c0.6,0,1.2-0.4,1.9-0.9c0.7-0.5,1.4-1,2.2-1c0.8,0,1.4,0.5,2.1,1c0.6,0.4,1.2,0.9,1.8,0.9
				c0.6,0,1.2-0.4,1.8-0.9c0.7-0.5,1.4-1,2.1-1c0.7,0,1.4,0.5,2.1,1c0.3,0.2,0.6,0.4,1,0.6l0.4-1.5L28.8,7l-4.6,16.3h-16L3.5,7.2
				l1.2-0.5L5.1,8L5.1,8z M26.9,9c-0.4-0.2-0.7-0.4-1.1-0.7c-0.6-0.4-1.2-0.9-1.8-0.9s-1.2,0.4-1.8,0.9c-0.7,0.5-1.4,1-2.1,1
				c-0.7,0-1.4-0.5-2.1-1c-0.6-0.4-1.2-0.9-1.8-0.9c-0.6,0-1.2,0.4-1.9,0.9c-0.7,0.5-1.4,1-2.2,1c-0.8,0-1.5-0.5-2.2-1
				C9.4,7.9,8.8,7.5,8.2,7.5C7.6,7.5,7,7.9,6.4,8.3C6.1,8.5,5.7,8.8,5.3,9l3.7,12.9h14.2L26.9,9L26.9,9z"/>
		</g>
	</g>
</g>
</svg>
