<?xml version="1.0" encoding="utf-8"?>
<!-- Generator: Adobe Illustrator 21.1.0, SVG Export Plug-In . SVG Version: 6.00 Build 0)  -->
<svg version="1.1" id="Warstwa_1" xmlns="http://www.w3.org/2000/svg" xmlns:xlink="http://www.w3.org/1999/xlink" x="0px" y="0px"
	 viewBox="0 0 32 32" style="enable-background:new 0 0 32 32;" xml:space="preserve">
<style type="text/css">
	.st0{fill:transparent;}
</style>
<title>Zasób 116</title>
<g id="Warstwa_2">
	<g id="Warstwa_6">
		<rect class="st0" width="32" height="32"/>
		<g id="Warstwa_1-2">
			<path d="M25,15.7H12.2c-4.3,0-6.3,5-7,7.1h21.5C26.4,21.5,25.7,18.6,25,15.7L25,15.7z M16.5,17.8c0.7,0,1.4,0.5,1.4,1.3
				c0,0.7-0.5,1.4-1.3,1.4c-0.7,0-1.4-0.5-1.4-1.3c0,0,0-0.1,0-0.1C15.2,18.4,15.8,17.8,16.5,17.8z M24.5,14.2c-0.5-2.2-1-4.1-1.3-5
				L15,9.3V7.8l8.9-0.1h0.5l0.2,0.6c0,0.1,3.7,15.4,3.7,15.4l0.2,0.6H15.9c-5.2,0-11.4-0.1-11.4-0.1H3.6l0.3-0.9c0,0,2-9.1,8.6-9.1
				C12.5,14.2,24.5,14.2,24.5,14.2z"/>
		</g>
	</g>
</g>
</svg>
