<svg xmlns="http://www.w3.org/2000/svg" width="82" height="18" viewBox="0 0 642 141"><path fill="#fff" d="M198.629 120.27l-20.7-20.7h-16.6v32.4h-29.4V.57h78.2l12.2 12.2 12.2 12.2v50.4l-10.2 10.2-10.2 10.2 12.6 12.6 12.6 12.6-10.1 10-10.1 10-20.7-20.7zm2.5-51.7l3.5-3.4v-29.4l-3.7-3.8-3.7-3.8h-35.8v43.8h36.2l3.5-3.4zm-189 51.3l-12.1-12.2v-82.8l12.2-12.2 12.2-12.2h54.4l11.9 11.8 11.9 11.8v29.8h-29.4v-18.4l-3.8-3.7-3.8-3.7h-28.8l-3.4 3.5-3.4 3.5v62.4l3.5 3.4 3.5 3.4h29.4l3.5-3.4 3.5-3.4v-16.6h29.4v27.4l-11.9 11.8-11.9 11.8h-54.6l-12.1-12.2zm263.7-6.9l-19-19.1v-34.2l29.6-29.5 29.6-29.5h33l19.3 19.4 19.3 19.4v34.2l-29.3 29.2-29.3 29.2h-34.2l-19-19.1zm62.1-31.2l21.4-21.5v-10.2l-10.3-10.4-10.3-10.4h-10.2l-21.8 21.7-21.8 21.7v9.6l10.3 10.4 10.3 10.4h10.8l21.4-21.5zm71.8-15.4V.67h78.2l11.9 11.8 11.9 11.8v54.6l-11.9 11.8-11.9 11.8h-48.8v29.4h-29.4v-65.7zm69.1 5.3l3.5-3.4v-32.4l-3.7-3.8-3.7-3.8h-35.8v46.8h36.2l3.5-3.4zm60.6-5.1l.2-65.5 39-.2 39-.2 12.2 12.1 12.2 12.1v54l-11.9 11.8-11.9 11.8h-48.8v29.4h-30l.2-65.5zm69.6 5.1l3.5-3.4v-32.4l-3.7-3.8-3.7-3.8h-35.8v46.8h36.2l3.5-3.4z"/></svg>